HIERARCHY
ROOT root
{
	OFFSET	0	13.1	24.9
	CHANNELS 6  Xposition Yposition Zposition Xrotation Yrotation Zrotation
	JOINT spine_1
	{
		OFFSET	0	9.99999	0
		CHANNELS 3  Xrotation Yrotation Zrotation
		JOINT spine_2
		{
			OFFSET	0	112	-10
			CHANNELS 3  Xrotation Yrotation Zrotation
			JOINT spine_3
			{
				OFFSET	0	206.5	19.3
				CHANNELS 3  Xrotation Yrotation Zrotation
				JOINT spine_4
				{
					OFFSET	0	110.4	14.6
					CHANNELS 3  Xrotation Yrotation Zrotation
					JOINT neck_1
					{
						OFFSET	0	71.8	-50.3
						CHANNELS 3  Xrotation Yrotation Zrotation
						JOINT neck_2
						{
							OFFSET	0	86.2	-25.8
							CHANNELS 3  Xrotation Yrotation Zrotation
							JOINT head_ee
							{
								OFFSET	0	179.8	-8.7
								CHANNELS 3  Xrotation Yrotation Zrotation
								End Site
								{
									OFFSET	1	0	0
								}
							}
						}
					}
					JOINT left_clavicle
					{
						OFFSET	-43.2	22.4	-70.8
						CHANNELS 3  Xrotation Yrotation Zrotation
						JOINT left_shoulder
						{
							OFFSET	-93.9	-5.79999	48.7
							CHANNELS 3  Xrotation Yrotation Zrotation
							JOINT left_elbow
							{
								OFFSET	-291.4	-30.8	15.2
								CHANNELS 3  Xrotation Yrotation Zrotation
								JOINT left_lowarm_twist
								{
									OFFSET	-110.7	-3.89999	13.6
									CHANNELS 3  Xrotation Yrotation Zrotation
									JOINT left_hand
									{
										OFFSET	-110.7	-3.89999	13.6
										CHANNELS 3  Xrotation Yrotation Zrotation
										JOINT left_ee
										{
											OFFSET	-80.8	-5.10001	12.1
											CHANNELS 3  Xrotation Yrotation Zrotation
											End Site
											{
												OFFSET	1	0	0
											}
										}
									}
								}
							}
						}
					}
					JOINT right_clavicle
					{
						OFFSET	43.2	22.4	-70.8
						CHANNELS 3  Xrotation Yrotation Zrotation
						JOINT right_shoulder
						{
							OFFSET	93.9	-5.79999	48.7
							CHANNELS 3  Xrotation Yrotation Zrotation
							JOINT right_elbow
							{
								OFFSET	291.4	-30.8	15.2
								CHANNELS 3  Xrotation Yrotation Zrotation
								JOINT right_lowarm_twist
								{
									OFFSET	110.7	-3.89999	13.6
									CHANNELS 3  Xrotation Yrotation Zrotation
									JOINT right_hand
									{
										OFFSET	110.7	-3.89999	13.6
										CHANNELS 3  Xrotation Yrotation Zrotation
										JOINT right_ee
										{
											OFFSET	80.8	-5.10001	12.1
											CHANNELS 3  Xrotation Yrotation Zrotation
											End Site
											{
												OFFSET	1	0	0
											}
										}
									}
								}
							}
						}
					}
				}
			}
		}
	}
	JOINT left_hip
	{
		OFFSET	-82.8	-127.5	0.300001
		CHANNELS 3  Xrotation Yrotation Zrotation
		JOINT left_knee
		{
			OFFSET	-28.2	-396.7	2.2
			CHANNELS 3  Xrotation Yrotation Zrotation
			JOINT left_ankle
			{
				OFFSET	-11.7	-411.3	35.4
				CHANNELS 3  Xrotation Yrotation Zrotation
				JOINT left_toes
				{
					OFFSET	0	-60	-88.6
					CHANNELS 3  Xrotation Yrotation Zrotation
					JOINT left_foot_ee
					{
						OFFSET	-22.5	-16.5	-42.2
						CHANNELS 3  Xrotation Yrotation Zrotation
						End Site
						{
							OFFSET	1	0	0
						}
					}
				}
			}
		}
	}
	JOINT right_hip
	{
		OFFSET	82.8	-127.5	0.300001
		CHANNELS 3  Xrotation Yrotation Zrotation
		JOINT right_knee
		{
			OFFSET	28.2	-396.7	2.2
			CHANNELS 3  Xrotation Yrotation Zrotation
			JOINT right_ankle
			{
				OFFSET	11.7	-411.3	35.4
				CHANNELS 3  Xrotation Yrotation Zrotation
				JOINT right_toes
				{
					OFFSET	0	-60	-88.6
					CHANNELS 3  Xrotation Yrotation Zrotation
					JOINT right_foot_ee
					{
						OFFSET	22.5	-16.5	-42.2
						CHANNELS 3  Xrotation Yrotation Zrotation
						End Site
						{
							OFFSET	1	0	0
						}
					}
				}
			}
		}
	}
}
MOTION
Frames: 15
Frame Time: 0.02
3177.02 653.055 -1669.29 -15.5340978245 31.8555026057 10.994320115 5.11526 0.236984 -0.669011 5.11547 0.279074 -0.652576 5.11212 0.356762 -0.613563 5.11169 0.255386 -0.662204 -12.7915 -2.8343 -2.14044 -12.7887 -4.03727 -2.87869 -0.0 0.0 -0.0 7.48627 13.6127 14.0324 -29.0893 -10.1055 58.1784 0.200369 -5.66858 0.00991983 50.3192 -0.991757 -6.14716 2.66716 10.9695 22.1313 -0.0 0.0 -0.0 6.8056 29.093 -11.4671 -25.1531 44.4633 -48.6914 1.14452 29.5505 -0.301875 -29.6407 1.92272 -3.22185 -2.91987 -28.8668 4.4576 0.0 0.0 0.0 48.3734 -17.2217 3.84096 -12.3516 0.308357 1.86679 12.2394 24.2985 -1.80037 -6.26655 0.0 0.0 -0.0 0.0 -0.0 -0.650748 -5.75464 -4.19195 -16.103 -0.321685 -2.44212 43.4623 -25.6694 5.51192 40.4985 -0.0 -0.0 0.0 0.0 0.0 
3162.85740264 653.24 -1691.19682396 -14.4781393557 29.8876062668 9.10870137719 5.03064 0.289975 -0.162932 5.03061 0.299756 -0.144149 5.02988 0.31528 -0.105977 5.02999 0.294586 -0.15444 -11.7572 0.0594853 -1.6122 -11.7505 1.15744 -1.5357 -0.0 0.0 -0.0 7.51043 12.9892 14.1163 -31.641 -11.2769 58.0917 0.328685 -9.248 0.026584 50.7207 -1.02089 -6.18952 3.11367 -2.85249 20.1377 -0.0 0.0 -0.0 7.21995 28.8857 -12.3971 -25.4065 43.8753 -50.5164 1.15139 29.6978 -0.305271 -28.549 1.82361 -3.12303 -3.40732 -28.7045 7.18551 0.0 0.0 0.0 47.7714 -16.3287 3.1589 -16.1357 0.321636 2.44713 19.1113 19.4623 -2.68091 -3.87875 0.0 0.0 -0.0 0.0 -0.0 -0.605989 -2.51902 -3.39777 -22.3885 -0.259624 -3.40407 41.9555 -24.163 5.32384 39.8384 -0.0 -0.0 0.0 0.0 0.0 
3141.25546688 656.298 -1718.65869424 -13.4854726404 25.6655511423 7.02110398906 4.91406 0.377656 0.0969963 4.91399 0.370718 0.120831 4.91483 0.352601 0.166449 4.91499 0.374463 0.108673 -10.799 4.19939 -0.582006 -10.8251 8.31459 0.536633 -0.0 0.0 -0.0 7.46363 11.7575 14.113 -32.9825 -12.4803 57.5445 0.560226 -15.5105 0.0762964 52.6153 -1.16234 -6.38666 3.47166 -15.4879 16.9028 -0.0 0.0 -0.0 8.08933 28.5123 -14.3479 -26.3447 44.1395 -53.3062 1.15825 29.8446 -0.30868 -28.9096 1.85614 -3.15587 -4.14034 -28.8603 11.0943 0.0 0.0 0.0 46.8042 -16.2909 3.23295 -21.5314 0.274297 3.27337 27.1947 14.8532 -3.61968 -0.972882 0.0 0.0 -0.0 0.0 -0.0 0.879874 -1.04786 -3.62985 -27.4915 -0.131944 -4.17652 32.2948 -16.9201 4.20566 36.1272 -0.0 -0.0 0.0 0.0 0.0 
3140.83798677 656.298 -1718.35354776 -13.5406217744 26.1381105231 7.1473512241 4.91406 0.377656 0.0969963 4.91399 0.370718 0.120831 4.91483 0.352601 0.166449 4.91499 0.374463 0.108673 -10.799 4.19939 -0.582006 -10.8251 8.31459 0.536633 -0.0 0.0 -0.0 7.46363 11.7575 14.113 -32.9825 -12.4803 57.5445 0.560226 -15.5105 0.0762964 52.6153 -1.16234 -6.38666 3.47166 -15.4879 16.9028 -0.0 0.0 -0.0 8.08933 28.5123 -14.3479 -26.3447 44.1395 -53.3062 1.15825 29.8446 -0.30868 -28.9096 1.85614 -3.15587 -4.14034 -28.8603 11.0943 0.0 0.0 0.0 46.8042 -16.2909 3.23295 -21.5314 0.274297 3.27337 27.1947 14.8532 -3.61968 -0.972882 0.0 0.0 -0.0 0.0 -0.0 0.879874 -1.04786 -3.62985 -27.4915 -0.131944 -4.17652 32.2948 -16.9201 4.20566 36.1272 -0.0 -0.0 0.0 0.0 0.0 
3117.27511164 658.759 -1741.23420627 -12.7672013607 24.3516288623 6.04547540139 4.85091 0.461352 -0.0516563 4.85079 0.463704 -0.022194 4.8507 0.462777 0.0367608 4.851 0.462775 -0.0367891 -11.092 5.61719 2.32198 -11.1137 9.09059 3.74231 -0.0 0.0 -0.0 7.70962 9.53354 14.6817 -30.7976 -7.50797 61.1038 0.551171 -15.2717 0.0738933 36.889 -0.197419 -4.62781 3.13514 -15.9879 14.3262 -0.0 0.0 -0.0 8.78841 28.2462 -15.9202 -23.4317 34.5648 -54.501 1.14839 29.6337 -0.303788 -19.496 1.07844 -2.23551 -0.404931 -19.174 -5.31839 0.0 0.0 0.0 45.2562 -15.7376 4.12684 -25.3018 0.195164 3.84643 30.4304 8.07405 -3.93625 -0.873474 0.0 0.0 -0.0 0.0 -0.0 3.89204 2.24983 -2.58567 -36.4964 0.259046 -5.50156 25.1504 -24.81 3.52295 25.1103 -0.0 -0.0 0.0 0.0 0.0 
3105.42511696 658.577 -1764.25903508 -12.265082018 23.121849989 5.95902531739 4.77512 0.295514 -0.14833 4.77508 0.304353 -0.129225 4.77443 0.318397 -0.0891795 4.77454 0.300317 -0.138346 -10.316 2.52172 2.83305 -10.297 2.85072 3.39361 -0.0 0.0 -0.0 8.00766 6.38861 15.3968 -28.4106 -5.55354 62.2288 0.536525 -14.8841 0.0700832 22.1177 0.242054 -2.79747 2.56916 -8.65999 13.7978 -0.0 0.0 -0.0 7.06785 16.6542 -13.1731 -21.9216 35.0941 -52.855 1.41709 35.0662 -0.447726 -13.468 0.664186 -1.58482 1.69112 -17.2437 -17.6093 0.0 0.0 0.0 44.8255 -15.3993 3.79643 -28.8222 0.0873736 4.37588 25.3071 7.75603 -3.36687 -1.71984 0.0 0.0 -0.0 0.0 -0.0 6.18698 7.87637 -1.14314 -44.1561 0.752118 -6.57005 -9.88072 -25.3509 -1.53742 19.5283 -0.0 -0.0 0.0 0.0 0.0 
3091.06106321 666.63 -1793.00265653 -12.6841744229 22.0440586181 5.96169683708 5.11713 0.398473 -0.166304 5.11705 0.408248 -0.140611 5.11612 0.422368 -0.0896845 5.11634 0.402903 -0.155265 -11.1835 2.84541 3.09755 -11.162 3.34378 3.75317 -0.0 0.0 -0.0 8.02491 3.3157 15.5538 -25.1219 -1.66721 63.9241 0.483947 -13.4815 0.0572 17.3691 0.281609 -2.1924 0.999321 -13.5978 0.942026 -0.0 0.0 -0.0 6.41633 8.61523 -12.2168 -23.7632 38.5083 -54.6653 1.31424 33.064 -0.390109 -10.8109 0.503844 -1.28505 2.50164 -17.7554 -23.0782 0.0 0.0 0.0 42.888 -13.7899 3.92301 -27.9702 0.116445 4.24835 30.747 11.2288 -3.98352 5.346 -0.0 -0.0 -0.0 0.0 -0.0 10.1232 8.62157 -3.41262 -50.9419 1.30519 -7.45545 -17.1316 -23.8637 -2.66444 16.4109 -0.0 -0.0 0.0 0.0 0.0 
3091.28484224 666.63 -1793.15784459 -12.6749920335 21.9430093968 5.93717791113 5.11713 0.398473 -0.166304 5.11705 0.408248 -0.140611 5.11612 0.422368 -0.0896845 5.11634 0.402903 -0.155265 -11.1835 2.84541 3.09755 -11.162 3.34378 3.75317 -0.0 0.0 -0.0 8.02491 3.3157 15.5538 -25.1219 -1.66721 63.9241 0.483947 -13.4815 0.0572 17.3691 0.281609 -2.1924 0.999321 -13.5978 0.942026 -0.0 0.0 -0.0 6.41633 8.61523 -12.2168 -23.7632 38.5083 -54.6653 1.31424 33.064 -0.390109 -10.8109 0.503844 -1.28505 2.50164 -17.7554 -23.0782 0.0 0.0 0.0 42.888 -13.7899 3.92301 -27.9702 0.116445 4.24835 30.747 11.2288 -3.98352 5.346 -0.0 -0.0 -0.0 0.0 -0.0 10.1232 8.62157 -3.41262 -50.9419 1.30519 -7.45545 -17.1316 -23.8637 -2.66444 16.4109 -0.0 -0.0 0.0 0.0 0.0 
3091.28191904 666.63 -1793.15582125 -12.6751115655 21.9443286 5.9374977766 5.11713 0.398473 -0.166304 5.11705 0.408248 -0.140611 5.11612 0.422368 -0.0896845 5.11634 0.402903 -0.155265 -11.1835 2.84541 3.09755 -11.162 3.34378 3.75317 -0.0 0.0 -0.0 8.02491 3.3157 15.5538 -25.1219 -1.66721 63.9241 0.483947 -13.4815 0.0572 17.3691 0.281609 -2.1924 0.999321 -13.5978 0.942026 -0.0 0.0 -0.0 6.41633 8.61523 -12.2168 -23.7632 38.5083 -54.6653 1.31424 33.064 -0.390109 -10.8109 0.503844 -1.28505 2.50164 -17.7554 -23.0782 0.0 0.0 0.0 42.888 -13.7899 3.92301 -27.9702 0.116445 4.24835 30.747 11.2288 -3.98352 5.346 -0.0 -0.0 -0.0 0.0 -0.0 10.1232 8.62157 -3.41262 -50.9419 1.30519 -7.45545 -17.1316 -23.8637 -2.66444 16.4109 -0.0 -0.0 0.0 0.0 0.0 
3075.26233943 664.219 -1817.72434581 -13.4175275774 22.6025898118 6.25312789689 5.44538 0.392329 -0.172777 5.44531 0.402528 -0.147462 5.44435 0.416964 -0.0995727 5.44455 0.396006 -0.164176 -10.7912 3.03035 3.1743 -10.7688 3.61481 3.86613 -0.0 0.0 -0.0 7.71511 0.535654 15.0091 -24.4731 -1.77163 64.6287 0.540801 -14.9974 0.0711858 13.0865 0.274209 -1.64558 0.820654 -18.2211 -2.27102 -0.0 0.0 -0.0 4.8644 6.81924 -9.09034 -26.0935 39.1927 -58.1758 1.25244 31.815 -0.356958 -7.72354 0.335283 -0.927967 2.46562 -15.7539 -22.2529 0.0 0.0 0.0 40.5087 -11.3233 3.56657 -25.0926 0.200541 3.81478 29.374 10.7313 -3.83266 9.26874 -0.0 -0.0 -0.0 0.0 -0.0 15.3058 9.10408 -1.32599 -57.5601 1.94237 -8.25118 -13.4609 -23.7111 -2.0859 15.4172 -0.0 -0.0 0.0 0.0 0.0 
3073.29923255 664.219 -1816.35929965 -13.4926164943 23.342946345 6.44551458635 5.44538 0.392329 -0.172777 5.44531 0.402528 -0.147462 5.44435 0.416964 -0.0995727 5.44455 0.396006 -0.164176 -10.7912 3.03035 3.1743 -10.7688 3.61481 3.86613 -0.0 0.0 -0.0 7.71511 0.535654 15.0091 -24.4731 -1.77163 64.6287 0.540801 -14.9974 0.0711858 13.0865 0.274209 -1.64558 0.820654 -18.2211 -2.27102 -0.0 0.0 -0.0 4.8644 6.81924 -9.09034 -26.0935 39.1927 -58.1758 1.25244 31.815 -0.356958 -7.72354 0.335283 -0.927967 2.46562 -15.7539 -22.2529 0.0 0.0 0.0 40.5087 -11.3233 3.56657 -25.0926 0.200541 3.81478 29.374 10.7313 -3.83266 9.26874 -0.0 -0.0 -0.0 0.0 -0.0 15.3058 9.10408 -1.32599 -57.5601 1.94237 -8.25118 -13.4609 -23.7111 -2.0859 15.4172 -0.0 -0.0 0.0 0.0 0.0 
3056.48647662 678.615 -1833.0986452 -13.7250361721 24.8689411226 6.05626241018 5.49135 0.286386 -0.168409 5.49132 0.296522 -0.149844 5.49058 0.311864 -0.114539 5.49068 0.289861 -0.162355 -10.803 3.26454 3.30874 -10.7794 3.96877 4.05766 -0.0 0.0 -0.0 7.49404 -2.39297 14.5819 -23.804 -1.68795 66.8904 0.650289 -17.8556 0.102157 8.26112 0.216978 -1.03205 0.721593 -23.1851 -5.09268 -0.0 0.0 -0.0 4.18525 4.37108 -7.84838 -28.7407 40.3618 -59.7635 1.19028 30.5237 -0.324781 -5.04398 0.204794 -0.611169 2.28425 -13.5361 -20.3418 0.0 0.0 0.0 37.3871 -8.25955 3.78144 -20.9764 0.282755 3.18863 26.6408 9.91115 -3.52478 13.7132 -0.0 -0.0 -0.0 0.0 -0.0 21.4876 10.0084 -1.87559 -64.2392 2.67471 -8.97533 -10.5395 -26.1079 -1.64793 13.6318 -0.0 -0.0 0.0 0.0 0.0 
3050.39880874 678.615 -1828.43985524 -13.9763167428 26.9659205821 6.63107575419 5.49135 0.286386 -0.168409 5.49132 0.296522 -0.149844 5.49058 0.311864 -0.114539 5.49068 0.289861 -0.162355 -10.803 3.26454 3.30874 -10.7794 3.96877 4.05766 -0.0 0.0 -0.0 7.49404 -2.39297 14.5819 -23.804 -1.68795 66.8904 0.650289 -17.8556 0.102157 8.26112 0.216978 -1.03205 0.721593 -23.1851 -5.09268 -0.0 0.0 -0.0 4.18525 4.37108 -7.84838 -28.7407 40.3618 -59.7635 1.19028 30.5237 -0.324781 -5.04398 0.204794 -0.611169 2.28425 -13.5361 -20.3418 0.0 0.0 0.0 37.3871 -8.25955 3.78144 -20.9764 0.282755 3.18863 26.6408 9.91115 -3.52478 13.7132 -0.0 -0.0 -0.0 0.0 -0.0 21.4876 10.0084 -1.87559 -64.2392 2.67471 -8.97533 -10.5395 -26.1079 -1.64793 13.6318 -0.0 -0.0 0.0 0.0 0.0 
3034.53113334 688.033 -1836.86471431 -15.3179201354 29.2058490195 8.0697568503 5.56283 0.183264 -0.0871431 5.56281 0.188438 -0.0753049 5.56258 0.195817 -0.053249 5.56263 0.18495 -0.0835065 -11.6392 3.18207 2.46461 -11.6321 4.42465 3.24812 -0.0 0.0 -0.0 7.71553 -4.82845 15.021 -22.992 -1.23674 66.9707 0.796301 -21.5274 0.151382 3.34394 0.105758 -0.413962 0.637216 -25.9936 -6.86161 -0.0 0.0 -0.0 4.13381 3.44037 -7.79799 -28.7468 39.2493 -60.5734 1.07978 28.1412 -0.270642 -3.05025 0.11741 -0.371735 2.49247 -9.16298 -20.3123 0.0 0.0 0.0 36.2647 -5.17847 2.95518 -19.8778 0.297074 3.02066 24.944 8.87214 -3.32668 18.7166 -0.0 -0.0 -0.0 0.0 -0.0 27.0639 10.6945 -1.75593 -69.0814 3.25615 -9.44501 -7.85672 -27.155 -1.23136 12.1381 -0.0 -0.0 0.0 0.0 0.0 
2994.63044591 689.968 -1879.24953482 -18.2816807676 28.6220781007 9.79541297666 6.07619 -0.0439282 0.105425 6.0762 -0.0505476 0.102416 6.0761 -0.0610715 0.0965111 6.07609 -0.045063 0.104945 -7.55778 2.0516 -4.01238 -7.50852 6.68507 -3.56391 -0.0 0.0 -0.0 8.432 -8.7362 16.468 -19.6227 -1.08026 64.6607 1.40774 -34.8881 0.442366 -12.214 -0.586778 1.44426 1.12573 -28.7346 -4.92886 -0.0 0.0 -0.0 5.60605 5.56831 -10.6671 -28.2346 29.5189 -64.2503 0.560745 15.5242 -0.0764353 -1.21334 0.0443285 -0.148603 3.8577 12.128 -21.2944 0.0 0.0 0.0 33.4489 2.53377 1.59253 -17.762 0.315564 2.69657 24.8912 5.62277 -3.31864 32.8298 -0.0 -0.0 -0.0 0.0 -0.0 40.9429 7.72841 0.466633 -74.935 4.00902 -9.9452 -3.74064 -28.9335 -0.588783 7.75573 -0.0 -0.0 0.0 0.0 0.0 
